<?xml version="1.0" encoding="UTF-8"?>
<svg id="Layer_2" data-name="Layer 2" xmlns="http://www.w3.org/2000/svg" viewBox="0 0 963 924.82">
  <defs>
    <style>
      .cls-1 {
        fill: #2b2d42;
      }
    </style>
  </defs>
  <path class="cls-1" d="m576.95,924.82h386.05V0h-80.6l-373.32,470.89-229.08-279.99h-80.6v655.3h-114.54V80.42h258.78s89.09,8.67,135.75,29.88c0,0,55.15,21.21,110.3,67.88,0,0,38.18,38.18,50.91,55.15l59.39-59.39s-76.36-106.06-186.66-148.48c0,0-58.13-25.45-118.15-25.45H0v912.09h279.99V335.14l224.84,271.51,373.32-453.93v687.25h-203.63s-29.7,55.15-97.57,84.85Z"/>
  <path class="cls-1" d="m335.14,839.97s199.39,4.24,296.96-144.24c0,0,72.12-84.85,84.85-275.75l67.88-72.12s14.98,156.96-9.48,229.08c-24.46,72.12-41.43,148.48-134.76,233.33-70.27,63.88-134,86.88-194.44,101.59-36.32,8.84-73.62,12.95-111,12.95h0v-84.85Z"/>
</svg>